<svg xmlns="http://www.w3.org/2000/svg" version="1.1" xmlns:xlink="http://www.w3.org/1999/xlink" xmlns:svgjs="http://svgjs.dev/svgjs" width="1000" height="1000" viewBox="0 0 1000 1000"><rect width="1000" height="1000" fill="#ffffff"></rect><g transform="matrix(0.7,0,0,0.7,149.57575757575756,401.41871255527315)"><svg viewBox="0 0 396 112" data-background-color="#ffffff" preserveAspectRatio="xMidYMid meet" height="282" width="1000" xmlns="http://www.w3.org/2000/svg" xmlns:xlink="http://www.w3.org/1999/xlink"><g id="tight-bounds" transform="matrix(1,0,0,1,0.2400000000000091,-0.06735464128971103)"><svg viewBox="0 0 395.52 112.13470928257941" height="112.13470928257941" width="395.52"><g><svg viewBox="0 0 613.5528547495617 173.94966372582618" height="112.13470928257941" width="395.52"><g><rect width="7.208383658382571" height="173.94966372582618" x="191.9543568022195" y="0" fill="#000000" opacity="1" stroke-width="0" stroke="transparent" fill-opacity="1" class="rect-in-0" data-fill-palette-color="primary" rx="1%" id="in-0" data-palette-color="#1976d2"></rect></g><g transform="matrix(1,0,0,1,218.03285474956166,0.4327106062831376)"><svg viewBox="0 0 395.52000000000004 173.0842425132599" height="173.0842425132599" width="395.52000000000004"><g><svg viewBox="0 0 395.52000000000004 173.0842425132599" height="173.0842425132599" width="395.52000000000004"><g><svg viewBox="0 0 395.52000000000004 173.0842425132599" height="173.0842425132599" width="395.52000000000004"><g transform="matrix(1,0,0,1,0,0)"><svg width="395.52000000000004" viewBox="0.42000000000000526 -35.400000000000006 180.15000000000006 75.31" height="173.0842425132599" data-palette-color="#1976d2"><svg></svg><svg></svg><g class="undefined-text-0" data-fill-palette-color="primary" id="text-0"><path d="M43.92-16.55v0c0 2.327-0.073 4.647-0.22 6.96-0.147 2.307-0.317 4.623-0.51 6.95v0l-12.55 0.59c0.373-2.833 0.71-5.67 1.01-8.51 0.3-2.84 0.45-5.683 0.45-8.53v0c0-0.18-0.007-0.493-0.02-0.94-0.013-0.447-0.043-0.957-0.09-1.53-0.04-0.567-0.097-1.157-0.17-1.77-0.073-0.607-0.17-1.167-0.29-1.68-0.12-0.513-0.27-0.933-0.45-1.26-0.18-0.327-0.393-0.49-0.64-0.49v0c-0.567 0-1.013 0.217-1.34 0.65-0.327 0.433-0.567 0.95-0.72 1.55-0.153 0.6-0.247 1.213-0.28 1.84-0.033 0.627-0.05 1.137-0.05 1.53v0c0 0.68 0.017 1.363 0.05 2.05 0.033 0.68 0.05 1.38 0.05 2.1v0c0 2.52-0.06 5.033-0.18 7.54-0.127 2.507-0.28 5.023-0.46 7.55v0l-11.57 0.44c0.373-2.833 0.703-5.663 0.99-8.49 0.287-2.82 0.43-5.657 0.43-8.51v0c0-0.173-0.01-0.497-0.03-0.97-0.013-0.473-0.04-1.003-0.08-1.59-0.04-0.587-0.1-1.197-0.18-1.83-0.087-0.633-0.19-1.217-0.31-1.75-0.12-0.527-0.27-0.96-0.45-1.3-0.18-0.34-0.4-0.51-0.66-0.51v0c-0.407 0-0.75 0.157-1.03 0.47-0.273 0.32-0.497 0.73-0.67 1.23-0.167 0.507-0.297 1.067-0.39 1.68-0.087 0.607-0.15 1.203-0.19 1.79-0.04 0.587-0.067 1.127-0.08 1.62-0.007 0.5-0.017 0.873-0.03 1.12v0l-0.54 17.82h-12.3c0.26-2.753 0.523-5.513 0.79-8.28 0.267-2.767 0.503-5.53 0.71-8.29 0.2-2.76 0.367-5.523 0.5-8.29 0.127-2.767 0.19-5.533 0.19-8.3v0l11.62-0.49-0.05 2.84c0.36-0.46 0.77-0.92 1.23-1.38 0.453-0.467 0.937-0.883 1.45-1.25 0.513-0.367 1.057-0.663 1.63-0.89 0.58-0.227 1.18-0.34 1.8-0.34v0c0.793 0 1.51 0.06 2.15 0.18 0.633 0.127 1.207 0.337 1.72 0.63 0.513 0.287 0.963 0.687 1.35 1.2 0.393 0.513 0.737 1.16 1.03 1.94v0c0.52-0.567 1.043-1.093 1.57-1.58 0.533-0.487 1.093-0.907 1.68-1.26 0.58-0.347 1.213-0.62 1.9-0.82 0.68-0.193 1.437-0.29 2.27-0.29v0c1.58 0 2.923 0.307 4.03 0.92 1.107 0.607 2.03 1.413 2.77 2.42 0.74 1.013 1.317 2.17 1.73 3.47 0.42 1.3 0.733 2.65 0.94 4.05 0.213 1.4 0.35 2.793 0.41 4.18 0.053 1.38 0.08 2.65 0.08 3.81zM76.32-18.7v0c0 1.48-0.17 2.907-0.51 4.28-0.347 1.38-0.84 2.67-1.48 3.87-0.647 1.207-1.43 2.31-2.35 3.31-0.913 1-1.947 1.86-3.1 2.58-1.147 0.713-2.393 1.27-3.74 1.67-1.353 0.4-2.787 0.6-4.3 0.6v0c-1.467 0-2.863-0.187-4.19-0.56-1.327-0.38-2.567-0.907-3.72-1.58-1.153-0.673-2.2-1.487-3.14-2.44-0.933-0.953-1.73-2.01-2.39-3.17-0.66-1.167-1.173-2.417-1.54-3.75-0.367-1.333-0.55-2.727-0.55-4.18v0c0-1.413 0.173-2.8 0.52-4.16 0.34-1.36 0.83-2.64 1.47-3.84 0.647-1.207 1.423-2.313 2.33-3.32 0.913-1.013 1.937-1.887 3.07-2.62 1.127-0.733 2.35-1.303 3.67-1.71 1.32-0.407 2.713-0.61 4.18-0.61v0c2.36 0 4.51 0.367 6.45 1.1 1.947 0.733 3.607 1.78 4.98 3.14 1.38 1.36 2.447 3.003 3.2 4.93 0.76 1.927 1.14 4.08 1.14 6.46zM65.48-18.07v0c0-0.7-0.103-1.377-0.31-2.03-0.2-0.66-0.497-1.247-0.89-1.76-0.387-0.513-0.87-0.93-1.45-1.25-0.58-0.313-1.243-0.47-1.99-0.47v0c-0.767 0-1.45 0.137-2.05 0.41-0.6 0.28-1.117 0.66-1.55 1.14-0.433 0.48-0.763 1.04-0.99 1.68-0.227 0.647-0.34 1.327-0.34 2.04v0c0 0.68 0.097 1.363 0.29 2.05 0.193 0.687 0.487 1.307 0.88 1.86 0.393 0.553 0.877 1 1.45 1.34 0.58 0.34 1.253 0.51 2.02 0.51v0c0.76 0 1.447-0.15 2.06-0.45 0.613-0.3 1.13-0.707 1.55-1.22 0.42-0.513 0.747-1.103 0.98-1.77 0.227-0.667 0.34-1.36 0.34-2.08zM95.83-34.96l11.23 0.73-8.94 33.01-12.11 0.68-10.99-31.88 11.58-1.08 4.68 18.56zM107.57-33.69l12.99-0.69-1.71 33.26-10.31 0.53zM149.78-19.73v0c0 1.42-0.097 2.837-0.29 4.25v0c-2.787 0.18-5.553 0.47-8.3 0.87-2.753 0.4-5.507 0.793-8.26 1.18v0c0.427 1.173 1.09 2.11 1.99 2.81 0.907 0.7 1.987 1.05 3.24 1.05v0c0.653 0 1.367-0.123 2.14-0.37 0.773-0.24 1.54-0.543 2.3-0.91 0.767-0.367 1.5-0.763 2.2-1.19 0.7-0.42 1.303-0.8 1.81-1.14v0l-1.18 11.08c-0.633 0.487-1.32 0.903-2.06 1.25-0.74 0.34-1.51 0.617-2.31 0.83-0.793 0.207-1.597 0.36-2.41 0.46-0.813 0.1-1.613 0.15-2.4 0.15v0c-1.607 0-3.077-0.22-4.41-0.66-1.34-0.44-2.55-1.057-3.63-1.85-1.08-0.787-2.027-1.717-2.84-2.79-0.813-1.073-1.49-2.247-2.03-3.52-0.54-1.267-0.947-2.61-1.22-4.03-0.28-1.413-0.42-2.843-0.42-4.29v0c0-1.513 0.14-3.027 0.42-4.54 0.273-1.513 0.693-2.97 1.26-4.37 0.56-1.4 1.267-2.7 2.12-3.9 0.853-1.193 1.85-2.24 2.99-3.14 1.14-0.893 2.43-1.59 3.87-2.09 1.44-0.507 3.03-0.76 4.77-0.76v0c1.453 0 2.777 0.2 3.97 0.6 1.2 0.393 2.267 0.947 3.2 1.66 0.933 0.707 1.747 1.547 2.44 2.52 0.693 0.98 1.263 2.05 1.71 3.21 0.447 1.167 0.78 2.397 1 3.69 0.22 1.293 0.33 2.607 0.33 3.94zM140.01-20.46v-0.54c0-0.453-0.047-0.92-0.14-1.4-0.1-0.48-0.26-0.917-0.48-1.31-0.22-0.387-0.507-0.707-0.86-0.96-0.36-0.253-0.81-0.38-1.35-0.38v0c-0.647 0-1.22 0.177-1.72 0.53-0.493 0.347-0.92 0.783-1.28 1.31-0.36 0.533-0.653 1.11-0.88 1.73-0.227 0.613-0.397 1.18-0.51 1.7v0z" fill="#000000" fill-rule="nonzero" stroke="none" stroke-width="1" stroke-linecap="butt" stroke-linejoin="miter" stroke-miterlimit="10" stroke-dasharray="" stroke-dashoffset="0" font-family="none" font-weight="none" font-size="none" text-anchor="none" style="mix-blend-mode: normal" data-fill-palette-color="primary" opacity="1"></path><path transform="translate(0,39.28)" d="M1.83-34.72h22.51c-0.1 1.533-0.19 3.047-0.27 4.54-0.08 1.5-0.187 3.017-0.32 4.55v0l-10.35 0.53v3.08h8.99l-0.49 7.57-8.55 0.24 0.05 13.48-12.35 0.24zM43.85-34.96l9.52 32.86-12.11 1.56-1.47-5.51h-5.56l-1.22 5.51-12.45-1.22 9.71-32.52zM35.25-13.53h3.67l-1.86-8.49zM84.18-12.35v0c0 1.84-0.02 3.657-0.06 5.45-0.04 1.8-0.1 3.613-0.18 5.44v0l-14.07-0.25c0.493-2.88 0.917-5.757 1.27-8.63 0.36-2.873 0.54-5.773 0.54-8.7v0c0-0.213-0.007-0.557-0.02-1.03-0.02-0.473-0.053-1.007-0.1-1.6-0.053-0.593-0.123-1.203-0.21-1.83-0.087-0.627-0.21-1.2-0.37-1.72-0.153-0.52-0.34-0.947-0.56-1.28-0.22-0.333-0.483-0.5-0.79-0.5v0c-0.553 0-1.02 0.163-1.4 0.49-0.387 0.32-0.707 0.737-0.96 1.25-0.253 0.513-0.453 1.087-0.6 1.72-0.14 0.64-0.247 1.277-0.32 1.91-0.073 0.633-0.123 1.23-0.15 1.79-0.027 0.567-0.04 1.027-0.04 1.38v0c-0.08 2.88-0.143 5.74-0.19 8.58-0.053 2.84-0.12 5.71-0.2 8.61v0l-12.45 0.54c0.327-5.747 0.64-11.46 0.94-17.14 0.3-5.68 0.54-11.393 0.72-17.14v0l11.52-0.59-0.09 3.91c0.453-0.553 0.943-1.073 1.47-1.56 0.533-0.487 1.1-0.907 1.7-1.26 0.6-0.347 1.24-0.623 1.92-0.83 0.673-0.2 1.383-0.3 2.13-0.3v0c1.387 0 2.6 0.227 3.64 0.68 1.04 0.453 1.937 1.07 2.69 1.85 0.747 0.787 1.373 1.713 1.88 2.78 0.5 1.06 0.907 2.193 1.22 3.4 0.307 1.207 0.54 2.463 0.7 3.77 0.167 1.313 0.277 2.603 0.33 3.87 0.06 1.273 0.09 2.503 0.09 3.69 0 1.187 0 2.27 0 3.25zM107.74-34.96l9.52 32.86-12.11 1.56-1.46-5.51h-5.57l-1.22 5.51-12.45-1.22 9.72-32.52zM99.15-13.53h3.66l-1.86-8.49zM114.01-34.38l26.62-0.04-0.25 10.35-7.27 0.29-0.88 22.66-10.31 0.53-0.92-22.65-7.28 0.39zM141.77-33.69l12.99-0.69-1.71 33.26-10.3 0.53zM180.03-33.35v0l-0.88 10.3c-0.473-0.127-0.937-0.217-1.39-0.27-0.453-0.047-0.917-0.07-1.39-0.07v0c-1.16 0-2.263 0.147-3.31 0.44-1.053 0.293-1.98 0.74-2.78 1.34-0.807 0.607-1.45 1.37-1.93 2.29-0.48 0.92-0.72 2.007-0.72 3.26v0c0 0.907 0.133 1.7 0.4 2.38 0.267 0.673 0.65 1.233 1.15 1.68 0.493 0.447 1.093 0.783 1.8 1.01 0.713 0.233 1.5 0.35 2.36 0.35v0c0.6 0 1.22-0.063 1.86-0.19 0.633-0.12 1.267-0.287 1.9-0.5 0.633-0.213 1.243-0.457 1.83-0.73 0.587-0.28 1.133-0.573 1.64-0.88v0l-0.39 11.48c-0.64 0.32-1.323 0.607-2.05 0.86-0.733 0.253-1.487 0.473-2.26 0.66-0.773 0.187-1.547 0.33-2.32 0.43-0.773 0.093-1.51 0.14-2.21 0.14v0c-2.313 0-4.417-0.43-6.31-1.29-1.9-0.86-3.53-2.037-4.89-3.53-1.353-1.487-2.407-3.217-3.16-5.19-0.747-1.967-1.12-4.063-1.12-6.29v0c0-2.673 0.377-5.163 1.13-7.47 0.76-2.313 1.877-4.32 3.35-6.02 1.473-1.7 3.297-3.037 5.47-4.01 2.173-0.967 4.667-1.45 7.48-1.45v0c1.127 0 2.267 0.09 3.42 0.27 1.153 0.18 2.26 0.513 3.32 1z" fill="#000000" fill-rule="nonzero" stroke="none" stroke-width="1" stroke-linecap="butt" stroke-linejoin="miter" stroke-miterlimit="10" stroke-dasharray="" stroke-dashoffset="0" font-family="none" font-weight="none" font-size="none" text-anchor="none" style="mix-blend-mode: normal" data-fill-palette-color="primary" opacity="1"></path></g></svg></g></svg></g></svg></g></svg></g><g transform="matrix(1,0,0,1,0,0.4327106062831376)"><svg viewBox="0 0 173.0842425132599 173.0842425132599" height="173.0842425132599" width="173.0842425132599"><g><svg xmlns="http://www.w3.org/2000/svg" xmlns:xlink="http://www.w3.org/1999/xlink" version="1.1" x="0" y="0" viewBox="0 0 100 100" style="enable-background:new 0 0 100 100;" xml:space="preserve" height="173.0842425132599" width="173.0842425132599" class="icon-icon-0" data-fill-palette-color="accent" id="icon-0"><path d="M87.427 25H75.086L87.5 12.549 75.232 0H57.837l12.464 12.451L57.531 25H42.773l12.684-12.451L42.92 0H25.244l12.451 12.451L24.927 25H12.402l12.695-12.451L12.549 0H0v100h100V0H87.744L100 12.5 87.427 25zM87.5 87.365h-75v-12.5h75V87.365zM87.5 62.5h-75V50h75V62.5z" fill="#000000" data-fill-palette-color="accent"></path></svg></g></svg></g></svg></g><defs></defs></svg><rect width="395.52" height="112.13470928257941" fill="none" stroke="none" visibility="hidden"></rect></g></svg></g></svg>