<svg xmlns="http://www.w3.org/2000/svg" version="1.1" xmlns:xlink="http://www.w3.org/1999/xlink" xmlns:svgjs="http://svgjs.dev/svgjs" width="1000" height="371" viewBox="0 0 1000 371"><g transform="matrix(1,0,0,1,-0.6060606060606233,0.3081092021545828)"><svg viewBox="0 0 396 147" data-background-color="#ffffff" preserveAspectRatio="xMidYMid meet" height="371" width="1000" xmlns="http://www.w3.org/2000/svg" xmlns:xlink="http://www.w3.org/1999/xlink"><g id="tight-bounds" transform="matrix(1,0,0,1,0.2400000000000091,-0.12208100462729021)"><svg viewBox="0 0 395.52 147.24416200925458" height="147.24416200925458" width="395.52"><g><svg viewBox="0 0 539.9162786162162 200.99999999999997" height="147.24416200925458" width="395.52"><g><rect width="8.286905643243244" height="200.99999999999997" x="208.17914594594595" y="0" fill="#1976d2" opacity="1" stroke-width="0" stroke="transparent" fill-opacity="1" class="rect-in-0" data-fill-palette-color="primary" rx="1%" id="in-0" data-palette-color="#1976d2"></rect></g><g transform="matrix(1,0,0,1,238.15952185945946,0.4999999999999858)"><svg viewBox="0 0 301.7567567567568 200" height="200" width="301.7567567567568"><g><svg viewBox="0 0 301.7567567567568 200" height="200" width="301.7567567567568"><g><svg viewBox="0 0 301.7567567567568 200" height="200" width="301.7567567567568"><g transform="matrix(1,0,0,1,0,0)"><svg width="301.7567567567568" viewBox="5 -33.25 111.65 70.25" height="200" data-palette-color="#1976d2"><svg></svg><svg></svg><g class="undefined-text-0" data-fill-palette-color="primary" id="text-0"><path d="M8.5-26.9v26.9h-3.5v-32.5h5.25l5.7 21.45 5.75-21.45h5.25v32.5h-3.5v-26.9l-5.85 21.9h-3.25zM53.2-26.25v0 20c0 2.233-0.707 3.96-2.12 5.18-1.42 1.213-3.537 1.82-6.35 1.82-2.82 0-4.947-0.607-6.38-1.82-1.433-1.22-2.15-2.947-2.15-5.18v0-20c0-2.233 0.71-3.96 2.13-5.18 1.413-1.213 3.53-1.82 6.35-1.82 2.813 0 4.937 0.607 6.37 1.82 1.433 1.22 2.15 2.947 2.15 5.18zM49.7-6.25v0-20c0-2.667-1.667-4-5-4-3.333 0-5 1.333-5 4v0 20c0 2.667 1.667 4 5 4 3.333 0 5-1.333 5-4zM79.4-32.5l-7.35 32.5h-5.25l-7.35-32.5h3.5l6.45 28.65 6.5-28.65zM90.9-3h2.5v3h-8.5v-3h2.5v-26.5h-2.5v-3h8.5v3h-2.5zM116.65-3v3h-14.75v-32.5h14.25v3h-10.75v11.5h8.75v3h-8.75v12z" fill="#1976d2" fill-rule="nonzero" stroke="none" stroke-width="1" stroke-linecap="butt" stroke-linejoin="miter" stroke-miterlimit="10" stroke-dasharray="" stroke-dashoffset="0" font-family="none" font-weight="none" font-size="none" text-anchor="none" style="mix-blend-mode: normal" data-fill-palette-color="primary" opacity="1"></path><path transform="translate(0,37)" d="M13.05 0v0h-8.05v-32.5h8.05c2.6 0 4.577 0.617 5.93 1.85 1.347 1.233 2.02 2.95 2.02 5.15v0 18.5c0 2.233-0.667 3.957-2 5.17-1.333 1.22-3.317 1.83-5.95 1.83zM17.5-7v0-18.5c0-1.067-0.393-2-1.18-2.8-0.78-0.8-1.87-1.2-3.27-1.2v0h-4.55v26.5h4.55c1.4 0 2.49-0.39 3.27-1.17 0.787-0.787 1.18-1.73 1.18-2.83zM30.25 0v-32.5h7.55c2.6 0 4.577 0.617 5.93 1.85 1.347 1.233 2.02 2.95 2.02 5.15v0 3c0 2.833-1.183 4.65-3.55 5.45v0c2.7 0.733 4.05 2.583 4.05 5.55v0 4.5c0 2.233-0.667 3.957-2 5.17-1.333 1.22-3.317 1.83-5.95 1.83v0zM42.75-7v0-4.5c0-1.067-0.4-2.043-1.2-2.93-0.8-0.88-1.883-1.32-3.25-1.32v0h-4.55v12.75h4.55c1.4 0 2.493-0.39 3.28-1.17 0.78-0.787 1.17-1.73 1.17-2.83zM42.25-22.5v0-3c0-1.067-0.39-2-1.17-2.8-0.787-0.8-1.88-1.2-3.28-1.2v0h-4.05v11.25h4.05c1.4 0 2.493-0.433 3.28-1.3 0.78-0.867 1.17-1.85 1.17-2.95z" fill="#1976d2" fill-rule="nonzero" stroke="none" stroke-width="1" stroke-linecap="butt" stroke-linejoin="miter" stroke-miterlimit="10" stroke-dasharray="" stroke-dashoffset="0" font-family="none" font-weight="none" font-size="none" text-anchor="none" style="mix-blend-mode: normal" data-fill-palette-color="primary" opacity="1"></path></g></svg></g></svg></g></svg></g></svg></g><g transform="matrix(1,0,0,1,0,7.257162162162146)"><svg viewBox="0 0 186.48567567567568 186.48567567567568" height="186.48567567567568" width="186.48567567567568"><g><svg xmlns="http://www.w3.org/2000/svg" xmlns:xlink="http://www.w3.org/1999/xlink" version="1.1" x="0" y="0" viewBox="0 0 100 100" style="enable-background:new 0 0 100 100;" xml:space="preserve" height="186.48567567567568" width="186.48567567567568" class="icon-icon-0" data-fill-palette-color="accent" id="icon-0"><path d="M87.427 25H75.086L87.5 12.549 75.232 0H57.837l12.464 12.451L57.531 25H42.773l12.684-12.451L42.92 0H25.244l12.451 12.451L24.927 25H12.402l12.695-12.451L12.549 0H0v100h100V0H87.744L100 12.5 87.427 25zM87.5 87.365h-75v-12.5h75V87.365zM87.5 62.5h-75V50h75V62.5z" fill="#1976d2" data-fill-palette-color="accent"></path></svg></g></svg></g></svg></g><defs></defs></svg><rect width="395.52" height="147.24416200925458" fill="none" stroke="none" visibility="hidden"></rect></g></svg></g></svg>